Poster: 
http://imgr.us/images/pppoo64rvcvu69mf6b8.jpg

Info:

Format : MPEG-PS
File size : 948 MiB
Duration : 2h 4mn
Overall bit rate mode : Variable
Overall bit rate : 1 063 Kbps

Video
ID : 224 (0xE0)
Format : MPEG Video
Format version : Version 2
Format profile : Main@Main
Format settings, BVOP : Yes
Format settings, Matrix : Default
Format settings, GOP : M=3, N=12
Duration : 2h 4mn
Bit rate mode : Variable
Bit rate : 850 Kbps
Maximum bit rate : 9 608 Kbps
Width : 720 pixels
Height : 576 pixels
Display aspect ratio : 16:9
Frame rate : 24.000 fps
Standard : PAL
Color space : YUV
Chroma subsampling : 4:2:0
Bit depth : 8 bits
Scan type : Progressive
Scan order : 2:2:2:2:2:2:2:2:2:2:2:3 Pulldown
Compression mode : Lossy
Bits/(Pixel*Frame) : 0.085
Stream size : 758 MiB (80%)

Audio
ID : 189 (0xBD)-128 (0x80)
Format : AC-3
Format/Info : Audio Coding 3
Mode extension : CM (complete main)
Format settings, Endianness : Big
Muxing mode : DVD-Video
Duration : 2h 4mn
Bit rate mode : Constant
Bit rate : 192 Kbps
Channel(s) : 2 channels
Channel positions : Front: L R
Sampling rate : 48.0 KHz
Bit depth : 16 bits
Compression mode : Lossy
Delay relative to video : 33ms
Stream size : 171 MiB (18%)

Screens: 
http://imgr.us/images/20bo2e96sl6iyrfqwe4x.jpg 
http://imgr.us/images/58t0dauanq6ydpr71yuf.jpg 
http://imgr.us/images/wgka2d9kcdbl84bvwaio.jpg 
http://imgr.us/images/9uerdmhi6f572kw9dnl5.jpg 
http://imgr.us/images/cg1edc2a9ke8aow84t8x.jpg 
http://imgr.us/images/ow97dee9gfq1z7xqqbp.jpg 
http://imgr.us/images/kn4moantc4yvz2p0g87.jpg





